<svg id="Layer_2" data-name="Layer 2" xmlns="http://www.w3.org/2000/svg" viewBox="0 0 1845.24 552.77"><defs><style>.cls-1,.cls-2,.cls-5{stroke:#000;}.cls-1,.cls-2,.cls-3,.cls-5{stroke-miterlimit:10;}.cls-2,.cls-4{fill:#fff;}.cls-3{fill:#8e2c37;stroke:#8e2c37;}.cls-5{fill:none;}.cls-6{font-size:60px;font-family:ArialMT, Arial;}</style></defs><title>SUBC_Logo</title><rect class="cls-1" x="511.61" y="637.93" width="1244" height="38.67" transform="translate(95.63 -447.08) rotate(10.11)"/><rect class="cls-2" x="1744.91" y="758.87" width="134.67" height="38.67" transform="translate(127.38 -564.27) rotate(10.11)"/><path class="cls-2" d="M524.65,529.09S151.26,359.62,115.87,368.21L38.07,561.56s126.26,59.07,347,97.06c0,0,78.2-112,132.77-91.46" transform="translate(-37.27 -258.38)"/><circle class="cls-3" cx="367.61" cy="272.63" r="33.67"/><circle class="cls-3" cx="117.21" cy="173.2" r="33.67"/><circle class="cls-3" cx="272.47" cy="333.82" r="33.67"/><circle class="cls-3" cx="142.46" cy="296.84" r="33.67"/><circle class="cls-3" cx="241.62" cy="224.99" r="33.67"/><rect class="cls-1" x="164.17" y="637.93" width="1244" height="38.67" transform="translate(1638.19 908.01) rotate(169.89)"/><rect class="cls-2" x="40.2" y="758.87" width="134.67" height="38.67" transform="translate(312.66 1267.1) rotate(169.89)"/><path class="cls-2" d="M1395.13,529.09s373.39-169.47,408.78-160.88l77.8,193.35s-126.26,59.07-347,97.06c0,0-78.2-112-132.78-91.46" transform="translate(-37.27 -258.38)"/><circle class="cls-3" cx="1477.63" cy="272.63" r="33.67"/><circle class="cls-3" cx="1728.03" cy="173.2" r="33.67"/><circle class="cls-3" cx="1572.77" cy="333.82" r="33.67"/><circle class="cls-3" cx="1702.78" cy="296.84" r="33.67"/><circle class="cls-3" cx="1603.62" cy="224.99" r="33.67"/><polygon class="cls-1" points="536.03 3.88 617.9 3.88 651.72 37.7 651.72 74.56 592.49 74.56 592.49 60.27 564.19 60.27 564.19 82.93 629.08 82.93 654.49 108.34 654.49 184.56 617.67 221.38 536.03 221.38 502.04 187.39 502.04 145.08 564.05 145.08 564.05 164.79 592.34 164.79 592.34 133.82 527.38 133.82 499.19 105.64 499.19 40.49 536.03 3.88"/><polygon class="cls-2" points="547.3 23.64 609.42 23.64 637.62 51.84 637.62 57.64 612.19 57.64 598.03 43.47 555.71 43.47 544.5 54.68 544.5 91.38 552.96 99.84 614.97 99.84 637.5 122.37 637.5 173.38 606.51 204.37 547.23 204.37 519 176.13 519 161.97 544.34 161.97 544.34 173.23 555.64 184.53 597.9 184.53 609.06 173.36 609.06 122.49 603.52 116.94 538.71 116.94 519 97.23 519 51.9 547.3 23.64"/><polygon class="cls-1" points="701.41 2.29 788.91 2.29 788.91 58.82 780.38 58.82 780.38 163.35 808.46 163.35 808.46 58.82 800.19 58.82 800.19 2.41 890.55 2.41 890.55 58.91 870.8 58.91 870.8 185.82 836.77 219.85 754.91 219.85 751.96 219.85 718.03 185.92 718.03 58.77 701.41 58.77 701.41 2.29"/><polygon class="cls-2" points="718.24 22.21 774.69 22.21 774.69 41.77 763.46 41.77 763.46 171.66 774.69 182.88 816.69 182.88 827.96 171.6 827.96 42.1 817.02 42.1 817.02 22.21 870.69 22.21 870.69 41.88 853.8 41.88 853.8 174.54 825.3 203.04 763.35 203.04 735.05 174.74 735.05 41.77 718.24 41.77 718.24 22.21"/><path d="M1150.29,295.88v59.45l-8.59,8.59v2.91l8.43,8.43v64.91l-36.59,36.59H981V420.22h13.89V315.83H981V259h132.44Zm-16.94,50.88V310L1102.26,279H1000.63v20.11h13.92V437.43H997.67V460h101.49l34.09-34.09V386.28l-16.85-16.85v-5.72Z" transform="translate(-37.27 -258.38)"/><path class="cls-4" d="M1133.35,310v36.72l-16.95,16.95v5.72l16.85,16.85v39.59L1099.16,460H997.67V437.43h16.88V299.06h-13.92V279h101.63Zm-28.07,36.57V310.56l-11.5-11.5h-50.56v56.25h53.36Zm-.39,79.34V389.17l-11.11-11.11h-50.56v59.11h50.45Z" transform="translate(-37.27 -258.38)"/><path d="M1105.28,310.56v36.05l-8.7,8.7h-53.36V299.06h50.56Zm-17.11,25.05V318.78l-2.73-2.72H1060v22.47h25.25Z" transform="translate(-37.27 -258.38)"/><path d="M1104.89,389.17V426l-11.22,11.22h-50.45V378.06h50.56Zm-16.72,28.55V397.67l-2.73-2.72h-25.66v25.47h25.69Z" transform="translate(-37.27 -258.38)"/><polygon class="cls-5" points="943.73 0.65 1076.17 0.65 1113.02 37.5 1113.02 96.95 1104.43 105.54 1104.43 108.45 1112.86 116.88 1112.86 181.79 1076.27 218.38 943.73 218.38 943.73 161.84 957.62 161.84 957.62 57.45 943.73 57.45 943.73 0.65"/><polygon class="cls-5" points="963.36 20.57 1064.99 20.57 1096.08 51.66 1096.08 88.38 1079.13 105.33 1079.13 111.05 1095.98 127.9 1095.98 167.49 1061.89 201.58 960.4 201.58 960.4 179.05 977.28 179.05 977.28 40.68 963.36 40.68 963.36 20.57"/><polygon class="cls-5" points="1005.95 40.68 1056.51 40.68 1068.01 52.18 1068.01 88.23 1059.31 96.93 1005.95 96.93 1005.95 40.68"/><polygon class="cls-5" points="1022.73 57.68 1048.17 57.68 1050.9 60.4 1050.9 77.23 1047.98 80.15 1022.73 80.15 1022.73 57.68"/><polygon class="cls-5" points="1005.95 119.68 1056.51 119.68 1067.62 130.79 1067.62 167.57 1056.4 178.79 1005.95 178.79 1005.95 119.68"/><polygon class="cls-5" points="1022.51 136.57 1048.17 136.57 1050.9 139.29 1050.9 159.34 1048.2 162.04 1022.51 162.04 1022.51 136.57"/><polygon class="cls-1" points="1198.3 0.5 1277.19 0.5 1313.98 37.29 1313.98 85.75 1254.63 85.75 1254.63 60.31 1251.91 57.58 1226.41 57.58 1223.72 60.28 1223.72 159.08 1226.34 161.71 1251.74 161.71 1254.5 158.95 1254.5 130.86 1313.98 130.86 1313.98 181.75 1277.2 218.53 1198.3 218.53 1161.41 181.64 1161.41 37.75 1198.3 0.5"/><polygon class="cls-2" points="1178.3 48.86 1209.13 18.03 1265.86 18.03 1296.94 49.11 1296.94 68.86 1271.52 68.86 1271.52 48.97 1263.19 40.64 1217.86 40.64 1206.74 51.75 1206.74 167.75 1218.02 179.03 1262.86 179.03 1271.33 170.56 1271.33 145.08 1296.94 145.08 1296.94 170.42 1265.73 201.63 1209.3 201.63 1178.36 170.69 1178.3 48.86"/><path class="cls-1" d="M1204.71,290" transform="translate(-37.27 -258.38)"/><text class="cls-6" transform="translate(795.98 533.29)">Est. 1967</text></svg>